<svg width="189" height="40" viewBox="0 0 189 40" fill="none" xmlns="http://www.w3.org/2000/svg">
<path d="M28.4486 0.733496V0.880196C27.5828 0.880196 26.83 1.12469 26.1901 1.61369C25.5502 2.07009 25.2303 2.67319 25.2303 3.42298V39.2665H24.4399L4.114 3.47188V36.6259C4.114 37.3757 4.43394 37.9951 5.07383 38.4841C5.71372 38.9405 6.46653 39.1687 7.33226 39.1687V39.2665H0.0488281V39.1687C0.914559 39.1687 1.66737 38.9405 2.30726 38.4841C2.94714 37.9951 3.26709 37.3757 3.26709 36.6259V3.56968C3.26709 2.78729 2.94714 2.15159 2.30726 1.66259C1.70501 1.14099 0.952199 0.880196 0.0488281 0.880196V0.733496H4.96091L24.4399 35.0611V3.37408C24.4399 2.62429 24.1011 2.02119 23.4236 1.56479C22.7837 1.10839 22.0309 0.880196 21.1651 0.880196V0.733496H28.4486Z" fill="#BB9930"/>
<path d="M51.9883 0.733496C52.2141 0.733496 52.4023 0.668296 52.5529 0.537896C52.7034 0.374897 52.7787 0.211898 52.7787 0.0488991H52.8916L53.4562 4.20538L53.2869 4.25428C53.1363 3.40668 52.647 2.72209 51.8189 2.20049C51.0284 1.67889 50.1439 1.41809 49.1652 1.41809H38.2683C37.7414 1.41809 37.3085 1.58109 36.9697 1.90709C36.6686 2.20049 36.518 2.57539 36.518 3.03178V19.6577H46.3987C47.2644 19.6577 47.9607 19.3806 48.4877 18.8264C49.0147 18.2396 49.2782 17.5713 49.2782 16.8215H49.4475V23.1296H49.2782C49.2782 22.3798 49.0147 21.7278 48.4877 21.1736C47.9607 20.6194 47.2644 20.3423 46.3987 20.3423H36.518V36.9682C36.518 37.4246 36.6874 37.8158 37.0262 38.1418C37.4026 38.4352 37.8543 38.5819 38.3812 38.5819H51.2543C52.2329 38.5819 53.1363 38.3211 53.9644 37.7995C54.8301 37.2779 55.3006 36.5933 55.3759 35.7457L55.5453 35.7946L54.9807 40H54.8678C54.8678 39.8044 54.7925 39.6251 54.6419 39.4621C54.4914 39.3317 54.3032 39.2665 54.0773 39.2665H30.8155V39.1198C31.7189 39.1198 32.4717 38.859 33.0739 38.3374C33.7138 37.8158 34.0338 37.1801 34.0338 36.4303V3.56968C34.0338 2.75469 33.7138 2.10269 33.0739 1.61369C32.4717 1.0921 31.7189 0.831297 30.8155 0.831297V0.733496H51.9883Z" fill="#BB9930"/>
<path d="M55.5722 20C55.5722 17.3268 56.0615 14.8329 57.0402 12.5183C58.0188 10.1711 59.3551 8.13366 61.0489 6.40587C62.7427 4.64548 64.7188 3.25998 66.9773 2.24939C69.2357 1.23879 71.6447 0.733496 74.2042 0.733496H78.0436C78.3447 0.733496 78.5705 0.668296 78.7211 0.537896C78.8717 0.374897 78.9469 0.195598 78.9469 0H79.1163L83.4638 4.20538L83.3509 4.25428C82.6733 3.63488 81.977 3.14588 81.2618 2.78729C80.5843 2.39609 79.9256 2.10269 79.2857 1.90709C78.6458 1.71149 78.0436 1.58109 77.479 1.51589C76.9143 1.45069 76.425 1.41809 76.011 1.41809H75.277C72.9056 1.41809 70.6849 1.90709 68.6146 2.88509C66.5444 3.86308 64.7565 5.19967 63.2509 6.89486C61.7452 8.55746 60.5596 10.5134 59.6938 12.7628C58.8281 15.0122 58.3952 17.4246 58.3952 20C58.3952 22.5754 58.8281 24.9878 59.6938 27.2372C60.5596 29.4866 61.7452 31.4588 63.2509 33.154C64.7565 34.8166 66.5444 36.1369 68.6146 37.1149C70.6849 38.0929 72.9056 38.5819 75.277 38.5819C77.0085 38.5819 78.6646 38.3211 80.2455 37.7995C81.8264 37.2779 83.2944 36.5444 84.6495 35.599L84.7059 35.7457C83.2003 36.8541 81.5441 37.718 79.7374 38.3374C77.9683 38.9568 76.0674 39.2665 74.0349 39.2665C71.5129 39.2665 69.1228 38.7612 66.8643 37.7506C64.6059 36.74 62.6486 35.3708 60.9924 33.643C59.3363 31.8826 58.0188 29.8452 57.0402 27.5306C56.0615 25.1834 55.5722 22.6732 55.5722 20Z" fill="#BB9930"/>
<path d="M85.8545 0H86.0239C86.0239 0.456398 86.2874 0.684596 86.8144 0.684596H112.222C112.749 0.684596 113.012 0.456398 113.012 0H113.125L113.69 4.20538L113.52 4.25428C113.294 3.43928 112.805 2.77099 112.052 2.24939C111.3 1.69519 110.415 1.41809 109.399 1.41809H102.623C102.096 1.41809 101.645 1.58109 101.268 1.90709C100.93 2.20049 100.76 2.57539 100.76 3.03178V36.4303C100.76 37.1801 101.08 37.8158 101.72 38.3374C102.36 38.859 103.113 39.1198 103.978 39.1198V39.2665H95.0576V39.1198C95.9234 39.1198 96.6762 38.8427 97.3161 38.2885C97.9936 37.7343 98.3324 37.1149 98.3324 36.4303V3.03178C98.3324 2.57539 98.1442 2.20049 97.7678 1.90709C97.429 1.58109 96.9961 1.41809 96.4692 1.41809H89.6374C88.6211 1.41809 87.7366 1.69519 86.9838 2.24939C86.2309 2.77099 85.7416 3.43928 85.5158 4.25428L85.3464 4.20538L85.8545 0Z" fill="#BB9930"/>
<path d="M106.409 39.1687C107.425 39.1687 108.291 38.9242 109.006 38.4352C109.759 37.9462 110.248 37.2779 110.474 36.4303L119.847 5.72127C120.11 4.87368 120.091 4.02608 119.79 3.17848C119.489 2.33089 119.225 1.51589 119 0.733496H122.161C122.049 1.0921 121.954 1.41809 121.879 1.71149C121.804 1.97229 121.823 2.28199 121.936 2.64059L132.381 36.8215C132.418 36.8867 132.494 37.0497 132.607 37.3105C132.757 37.5713 132.983 37.8484 133.284 38.1418C133.585 38.4026 133.981 38.6471 134.47 38.8753C134.997 39.0709 135.618 39.1687 136.333 39.1687V39.2665H128.259V39.1687C128.711 39.1361 129.087 39.0383 129.388 38.8753C129.652 38.7449 129.859 38.5656 130.009 38.3374C130.198 38.0766 130.216 37.718 130.066 37.2616L125.041 20.7824H116.12L111.095 37.1149C110.945 37.5713 110.945 37.9462 111.095 38.2396C111.283 38.5004 111.509 38.7123 111.773 38.8753C112.074 39.0383 112.45 39.1361 112.902 39.1687V39.2665H106.409V39.1687ZM116.29 20.0978H124.815L120.581 5.96577L116.29 20.0978Z" fill="#BB9930"/>
<path d="M138.719 0.880196V0.733496H146.229C147.772 0.733496 149.202 0.977994 150.52 1.46699C151.875 1.92339 153.06 2.55909 154.077 3.37408C155.093 4.18908 155.883 5.13447 156.448 6.21027C157.05 7.28606 157.351 8.42706 157.351 9.63325C157.351 10.6764 157.126 11.687 156.674 12.665C156.222 13.6104 155.582 14.458 154.754 15.2078C153.964 15.9576 153.004 16.6096 151.875 17.1638C150.783 17.6854 149.598 18.0603 148.318 18.2885C149.598 18.6145 150.896 19.1524 152.214 19.9022C153.569 20.6194 154.792 21.6789 155.883 23.0807C157.013 24.4825 157.935 26.2755 158.65 28.4597C159.403 30.6112 159.779 33.2681 159.779 36.4303V36.4792C159.742 37.229 160.043 37.8647 160.683 38.3863C161.36 38.9079 162.132 39.1687 162.998 39.1687V39.2665H158.537C158.198 39.2665 157.897 39.1687 157.634 38.9731C157.408 38.7449 157.295 38.4841 157.295 38.1907V33.5452C157.295 32.6976 157.22 31.7359 157.069 30.6601C156.919 29.5844 156.655 28.4923 156.279 27.3839C155.94 26.2755 155.451 25.1997 154.811 24.1565C154.208 23.0807 153.437 22.1353 152.496 21.3203C151.555 20.4727 150.407 19.8044 149.052 19.3154C147.734 18.7938 146.191 18.533 144.422 18.533V36.577C144.422 37.3268 144.742 37.9462 145.382 38.4352C146.022 38.9242 146.774 39.1687 147.64 39.1687V39.2665H138.719V39.1687C139.585 39.1687 140.338 38.9242 140.978 38.4352C141.618 37.9462 141.938 37.3431 141.938 36.6259V3.56968C141.938 2.78729 141.618 2.15159 140.978 1.66259C140.376 1.14099 139.623 0.880196 138.719 0.880196ZM144.422 17.7995C145.928 17.8647 147.32 17.7343 148.6 17.4083C149.88 17.0497 150.99 16.5118 151.931 15.7946C152.872 15.0774 153.606 14.1972 154.133 13.154C154.66 12.1108 154.924 10.9372 154.924 9.63325C154.924 8.49226 154.717 7.43276 154.303 6.45477C153.926 5.44417 153.362 4.58028 152.609 3.86308C151.856 3.11328 150.934 2.52649 149.842 2.10269C148.751 1.64629 147.527 1.41809 146.172 1.41809C145.683 1.41809 145.269 1.56479 144.93 1.85819C144.591 2.15159 144.422 2.49389 144.422 2.88509V17.7995Z" fill="#BB9930"/>
<path d="M164.361 35.6479C165.791 36.8541 167.165 37.6365 168.483 37.9951C169.8 38.3537 170.892 38.533 171.757 38.533H175.71C177.065 38.533 178.326 38.2885 179.492 37.7995C180.697 37.2779 181.732 36.5933 182.598 35.7457C183.501 34.8981 184.197 33.9201 184.687 32.8117C185.176 31.6707 185.421 30.4808 185.421 29.2421C185.421 27.9707 185.157 26.7808 184.63 25.6724C184.103 24.564 183.369 23.6023 182.428 22.7873C181.487 21.9397 180.396 21.2714 179.154 20.7824C177.912 20.2934 176.575 20.0326 175.145 20C173.526 19.9674 172.04 19.6903 170.685 19.1687C169.367 18.6471 168.219 17.9462 167.24 17.066C166.299 16.1858 165.565 15.1752 165.038 14.0342C164.512 12.8606 164.248 11.6381 164.248 10.3667C164.248 9.03016 164.549 7.77506 165.151 6.60147C165.754 5.42787 166.563 4.41728 167.579 3.56968C168.596 2.68949 169.781 2.00489 171.136 1.51589C172.529 0.994295 174.016 0.733496 175.597 0.733496H180.001C180.302 0.733496 180.528 0.668296 180.678 0.537896C180.829 0.374897 180.904 0.195598 180.904 0H181.073L185.421 4.20538L185.364 4.30318C183.934 3.09698 182.56 2.31459 181.243 1.95599C179.925 1.59739 178.834 1.41809 177.968 1.41809H176.556C174.825 1.41809 173.357 1.66259 172.153 2.15159C170.948 2.64059 169.969 3.29258 169.217 4.10758C168.464 4.92258 167.918 5.86797 167.579 6.94377C167.278 8.01956 167.128 9.14425 167.128 10.3178C167.128 11.3284 167.316 12.3716 167.692 13.4474C168.106 14.5232 168.652 15.4849 169.329 16.3325C170.007 17.1801 170.816 17.881 171.757 18.4352C172.698 18.9894 173.733 19.2665 174.863 19.2665H176.952C178.533 19.2665 180.001 19.5273 181.356 20.0489C182.748 20.5705 183.953 21.2877 184.969 22.2005C185.985 23.0807 186.795 24.1402 187.397 25.379C187.999 26.5852 188.3 27.8892 188.3 29.291C188.3 30.6601 187.999 31.9641 187.397 33.2029C186.832 34.4091 186.042 35.4686 185.026 36.3814C184.009 37.2616 182.842 37.9625 181.525 38.4841C180.208 39.0057 178.815 39.2665 177.347 39.2665H169.555C169.292 39.2665 169.085 39.3317 168.934 39.4621C168.821 39.6251 168.765 39.7881 168.765 39.9511H168.652L164.248 35.7457L164.361 35.6479Z" fill="#BB9930"/>
</svg>
