<svg width="56" height="56" viewBox="0 0 56 56" fill="none" xmlns="http://www.w3.org/2000/svg">
<path d="M38.1913 15.0258C38.2162 16.0362 39.249 18.1886 43.1817 18.7142C48.0977 19.3712 57.0509 20.9939 55.6956 15.8474C54.3404 10.7009 45.5996 14.1735 43.633 16.8209C41.5536 19.6203 43.3918 22.1985 43.8241 23.3337C44.5536 24.5343 46.5151 27.007 48.5256 27.2936C51.0388 27.6519 53.4292 27.4454 52.9208 25.7469C52.6158 24.7277 50.2609 24.6922 49.2447 24.9038C47.4147 25.1277 46.2958 26.5333 46.0373 27.9459C45.5984 30.3443 48.1156 33.2587 48.2245 33.3986C48.8977 34.2632 51.4865 35.8018 52.7487 35.8385C54.3917 35.8862 54.5576 35.3896 54.5576 35.3896" stroke="#BB9930" stroke-width="0.341463" stroke-linecap="round"/>
<circle cx="28.8545" cy="30.9024" r="5.80488" fill="#BB9930" stroke="#BB9930" stroke-width="0.341463"/>
<circle cx="40.1238" cy="31.5852" r="4.09756" fill="#BB9930" stroke="#BB9930" stroke-width="0.341463"/>
<circle cx="35.8524" cy="21.5121" r="4.95122" fill="#BB9930" stroke="#BB9930" stroke-width="0.341463"/>
<circle cx="22.8788" cy="21.1708" r="3.92683" fill="#BB9930" stroke="#BB9930" stroke-width="0.341463"/>
<circle cx="18.0998" cy="30.3904" r="3.58537" fill="#BB9930" stroke="#BB9930" stroke-width="0.341463"/>
<path d="M25.6905 12.656C25.0509 13.4386 22.9146 14.5043 19.4868 12.5061C15.202 10.0083 7.13686 5.79573 11.365 2.56367C15.5931 -0.668389 20.364 7.43708 20.2922 10.7343C20.2164 14.2206 17.1829 15.1284 16.1449 15.7595C14.8323 16.2598 11.7661 17.0087 10.0027 16.0013C7.7985 14.742 6.03776 13.1122 7.48144 12.0829C8.34766 11.4654 10.2288 12.8824 10.9014 13.6731C12.209 14.9727 12.23 16.7692 11.5673 18.0432C10.442 20.2063 6.6662 20.9629 6.49435 21.0065C5.43221 21.2761 2.44399 20.9024 1.42487 20.1569C0.0982718 19.1864 0.271991 18.6925 0.271991 18.6925" stroke="#BB9930" stroke-width="0.341463" stroke-linecap="round"/>
<path d="M29.3652 21.8533C28.1994 19.9823 26.559 15.3029 27.7053 9.63651C27.7221 9.55361 27.7395 9.4705 27.7574 9.38719C27.9843 8.33571 28.3077 7.25149 28.7484 6.146" stroke="#BB9930" stroke-width="1.02439" stroke-linecap="round"/>
<path d="M27.6602 10.438C28.6766 10.7951 29.8265 10.8664 31.7577 10.438" stroke="#BB9930" stroke-width="0.682927" stroke-linecap="round"/>
<circle cx="20.4905" cy="38.5852" r="3.58537" fill="#BB9930" stroke="#BB9930" stroke-width="0.341463"/>
<circle cx="27.999" cy="40.6342" r="2.90244" fill="#BB9930" stroke="#BB9930" stroke-width="0.341463"/>
<circle cx="35.5139" cy="39.6096" r="3.58537" fill="#BB9930" stroke="#BB9930" stroke-width="0.341463"/>
<circle cx="26.9778" cy="46.7805" r="2.56098" fill="#BB9930" stroke="#BB9930" stroke-width="0.341463"/>
<circle cx="33.1223" cy="46.0974" r="2.56098" fill="#BB9930" stroke="#BB9930" stroke-width="0.341463"/>
<circle cx="31.0761" cy="51.2192" r="1.87805" fill="#BB9930" stroke="#BB9930" stroke-width="0.341463"/>
<circle cx="36.5371" cy="50.8779" r="1.87805" fill="#BB9930" stroke="#BB9930" stroke-width="0.341463"/>
<circle cx="16.3925" cy="23.9023" r="1.87805" fill="#BB9930" stroke="#BB9930" stroke-width="0.341463"/>
<circle cx="24.074" cy="43.1946" r="1.02439" fill="#BB9930" stroke="#BB9930" stroke-width="0.341463"/>
<circle cx="25.2682" cy="15.3654" r="1.19512" fill="#BB9930" stroke="#BB9930" stroke-width="0.341463"/>
<circle cx="42.1717" cy="25.4383" r="1.02439" fill="#BB9930" stroke="#BB9930" stroke-width="0.341463"/>
<circle cx="34.4869" cy="53.9508" r="1.19512" fill="#BB9930" stroke="#BB9930" stroke-width="0.341463"/>
<circle cx="37.9049" cy="45.4147" r="1.19512" fill="#BB9930" stroke="#BB9930" stroke-width="0.341463"/>
<path d="M40.4059 5.56862L40.2352 5.56452L40.2352 5.56437L40.2352 5.5637L40.2353 5.56094L40.2355 5.5498L40.2364 5.5059C40.2371 5.46735 40.238 5.41063 40.2388 5.33829C40.2406 5.19358 40.242 4.9864 40.2411 4.73693C40.2391 4.23772 40.2273 3.5704 40.1881 2.89602C40.1488 2.22004 40.0823 1.54377 39.9726 1.02388C39.9175 0.763113 39.8534 0.550493 39.7808 0.399199C39.7041 0.239215 39.6377 0.188662 39.6016 0.178365C39.5374 0.160001 39.4169 0.171263 39.2257 0.249455C39.0421 0.324567 38.8224 0.449143 38.577 0.612278C38.0869 0.93803 37.5167 1.4024 36.9641 1.88391C36.4125 2.36461 35.883 2.85835 35.4743 3.24109C35.4458 3.26774 35.4179 3.29387 35.3907 3.31944C35.2225 3.47696 35.0774 3.61295 34.9643 3.71636C34.8986 3.7764 34.8424 3.82675 34.7979 3.86454C34.7602 3.89661 34.7141 3.93455 34.6764 3.95351C34.6243 3.97962 34.5745 3.97475 34.5438 3.96671C34.5141 3.95895 34.4909 3.94565 34.4764 3.93617C34.4472 3.91709 34.421 3.89201 34.4002 3.87035C34.3567 3.82516 34.3059 3.76163 34.2526 3.69144C34.1933 3.61341 34.1228 3.51618 34.048 3.4129C33.9896 3.33236 33.9286 3.24816 33.8681 3.1665C33.7257 2.97432 33.5798 2.78691 33.4484 2.64862C33.3826 2.57928 33.3249 2.52715 33.277 2.49352C33.2308 2.46104 33.2102 2.45756 33.2102 2.4572C33.2102 2.45714 33.2106 2.45715 33.2114 2.45715C32.9673 2.45715 32.62 2.61298 32.2486 2.96285C31.8825 3.30767 31.5123 3.82392 31.2226 4.49971C31.0467 4.90992 31.0153 5.3551 30.9996 5.73321C30.9984 5.7628 30.9972 5.79229 30.9961 5.82151C30.9902 5.97251 30.9846 6.11633 30.9685 6.23121C30.9588 6.30052 30.9438 6.37128 30.9168 6.43331C30.8896 6.49599 30.8435 6.56473 30.7635 6.60485C30.6562 6.6587 30.3141 6.84519 29.9682 7.06484C29.7954 7.17455 29.6244 7.29086 29.4823 7.40163C29.3491 7.50546 29.2533 7.59543 29.2019 7.66381C29.2021 7.66438 29.2024 7.66497 29.2026 7.66558C29.2145 7.69465 29.2444 7.74115 29.3019 7.80405C29.4153 7.92799 29.6021 8.07933 29.8389 8.23868C30.3107 8.55625 30.9469 8.88328 31.4983 9.06711C31.6342 9.11241 31.8354 9.16508 32.0687 9.22615L32.0872 9.23101C32.3251 9.2933 32.5907 9.36315 32.8346 9.43916C33.0758 9.51434 33.3082 9.59918 33.4749 9.69434C33.5572 9.7413 33.6374 9.79846 33.6927 9.86934C33.7438 9.93482 33.7798 10.0219 33.7638 10.1194C33.7648 10.1461 33.7604 10.1705 33.7543 10.1906C33.743 10.2277 33.7236 10.2578 33.7077 10.279C33.6756 10.3217 33.6304 10.3636 33.584 10.4024C33.4891 10.4819 33.3499 10.5805 33.1887 10.6928C33.1581 10.7142 33.1265 10.7361 33.094 10.7587C32.7792 10.9775 32.3806 11.2545 31.9789 11.5858C31.0841 12.3237 30.2305 13.2858 30.2267 14.3972C30.2525 14.4095 30.2956 14.4247 30.3607 14.4398C30.5323 14.4796 30.7835 14.5028 31.0596 14.5186C31.2201 14.5277 31.379 14.534 31.5314 14.54C31.6442 14.5445 31.7535 14.5488 31.8572 14.554C31.9754 14.56 32.0838 14.5671 32.1719 14.5772C32.2159 14.5822 32.2575 14.5882 32.294 14.5957C32.3279 14.6028 32.3685 14.6133 32.4044 14.6313C32.4776 14.668 32.5174 14.7337 32.5392 14.7783C32.5631 14.8271 32.5806 14.883 32.5947 14.9362C32.6104 14.9955 32.6265 15.0716 32.6421 15.1454C32.6524 15.1944 32.6626 15.2424 32.6723 15.284C32.7001 15.4031 32.7299 15.499 32.7671 15.5628C32.7944 15.6098 32.8133 15.6202 32.8247 15.6224C33.0353 15.5912 33.3053 15.5324 33.6197 15.461C33.679 15.4476 33.7397 15.4337 33.8018 15.4195C34.0748 15.3571 34.3732 15.2889 34.6823 15.2256C35.4387 15.0705 36.2785 14.94 37.0101 14.9923C37.4934 15.0268 38.019 15.2654 38.5391 15.5762C39.0527 15.8833 39.582 16.2742 40.0846 16.6454L40.1129 16.6663C40.6282 17.0469 41.112 17.4027 41.5366 17.641C41.7485 17.7599 41.9384 17.8453 42.1042 17.8905C42.2704 17.9358 42.3991 17.9369 42.4976 17.9041C42.5523 17.8858 42.6034 17.8418 42.6452 17.744C42.6884 17.6429 42.7151 17.4976 42.7209 17.3077C42.7326 16.9289 42.6606 16.4223 42.5363 15.859C42.2886 14.7357 41.8438 13.4318 41.509 12.5737L41.4509 12.4248L41.5957 12.357C42.5785 11.8969 44.0259 11.1195 45.1744 10.2843C45.7495 9.86608 46.241 9.43948 46.5625 9.03692C46.8899 8.62694 47.0084 8.28368 46.9313 8.01401C46.8955 7.8887 46.7867 7.74658 46.5879 7.59337C46.392 7.44242 46.1265 7.29432 45.8097 7.15156C45.1766 6.86626 44.3637 6.61347 43.5561 6.40289C42.75 6.1927 41.9555 6.02622 41.3621 5.91223C41.0656 5.85527 40.8196 5.81148 40.6478 5.78195C40.562 5.76719 40.4947 5.756 40.449 5.74851L40.3969 5.74007L40.3837 5.73797L40.3805 5.73745L40.3797 5.73733L40.3795 5.7373L40.4059 5.56862ZM40.4059 5.56862L40.2352 5.56456L40.2316 5.71414L40.3794 5.73729L40.4059 5.56862Z" fill="#BB9930" stroke="#BB9930" stroke-width="0.341463" stroke-linecap="round"/>
</svg>
