<svg width="399" height="56" viewBox="0 0 399 56" fill="none" xmlns="http://www.w3.org/2000/svg">
<path d="M38.1913 15.0258C38.2162 16.0362 39.249 18.1886 43.1817 18.7142C48.0977 19.3712 57.0509 20.9939 55.6956 15.8474C54.3404 10.7009 45.5996 14.1735 43.633 16.8209C41.5536 19.6203 43.3918 22.1985 43.8241 23.3337C44.5536 24.5343 46.5151 27.007 48.5256 27.2936C51.0388 27.6519 53.4292 27.4454 52.9208 25.7469C52.6158 24.7277 50.2609 24.6922 49.2447 24.9038C47.4147 25.1277 46.2958 26.5333 46.0373 27.9459C45.5984 30.3443 48.1156 33.2587 48.2245 33.3986C48.8977 34.2632 51.4865 35.8018 52.7487 35.8385C54.3917 35.8862 54.5576 35.3896 54.5576 35.3896" stroke="#BB9930" stroke-width="0.341463" stroke-linecap="round"/>
<circle cx="28.8545" cy="30.9024" r="5.80488" fill="#BB9930" stroke="#BB9930" stroke-width="0.341463"/>
<circle cx="40.1238" cy="31.5852" r="4.09756" fill="#BB9930" stroke="#BB9930" stroke-width="0.341463"/>
<circle cx="35.8524" cy="21.5121" r="4.95122" fill="#BB9930" stroke="#BB9930" stroke-width="0.341463"/>
<circle cx="22.8788" cy="21.1708" r="3.92683" fill="#BB9930" stroke="#BB9930" stroke-width="0.341463"/>
<circle cx="18.0998" cy="30.3904" r="3.58537" fill="#BB9930" stroke="#BB9930" stroke-width="0.341463"/>
<path d="M25.6905 12.656C25.0509 13.4386 22.9146 14.5043 19.4868 12.5061C15.202 10.0083 7.13686 5.79573 11.365 2.56367C15.5931 -0.668389 20.364 7.43708 20.2922 10.7343C20.2164 14.2206 17.1829 15.1284 16.1449 15.7595C14.8323 16.2598 11.7661 17.0087 10.0027 16.0013C7.7985 14.742 6.03776 13.1122 7.48144 12.0829C8.34766 11.4654 10.2288 12.8824 10.9014 13.6731C12.209 14.9727 12.23 16.7692 11.5673 18.0432C10.442 20.2063 6.6662 20.9629 6.49435 21.0065C5.43221 21.2761 2.44399 20.9024 1.42487 20.1569C0.0982718 19.1864 0.271991 18.6925 0.271991 18.6925" stroke="#BB9930" stroke-width="0.341463" stroke-linecap="round"/>
<path d="M29.3652 21.8533C28.1994 19.9823 26.559 15.3029 27.7053 9.63651C27.7221 9.55361 27.7395 9.4705 27.7574 9.38719C27.9843 8.33571 28.3077 7.25149 28.7484 6.146" stroke="#BB9930" stroke-width="1.02439" stroke-linecap="round"/>
<path d="M27.6602 10.438C28.6766 10.7951 29.8265 10.8664 31.7577 10.438" stroke="#BB9930" stroke-width="0.682927" stroke-linecap="round"/>
<circle cx="20.4905" cy="38.5852" r="3.58537" fill="#BB9930" stroke="#BB9930" stroke-width="0.341463"/>
<circle cx="27.999" cy="40.6342" r="2.90244" fill="#BB9930" stroke="#BB9930" stroke-width="0.341463"/>
<circle cx="35.5139" cy="39.6096" r="3.58537" fill="#BB9930" stroke="#BB9930" stroke-width="0.341463"/>
<circle cx="26.9778" cy="46.7805" r="2.56098" fill="#BB9930" stroke="#BB9930" stroke-width="0.341463"/>
<circle cx="33.1223" cy="46.0974" r="2.56098" fill="#BB9930" stroke="#BB9930" stroke-width="0.341463"/>
<circle cx="31.0761" cy="51.2192" r="1.87805" fill="#BB9930" stroke="#BB9930" stroke-width="0.341463"/>
<circle cx="36.5371" cy="50.8779" r="1.87805" fill="#BB9930" stroke="#BB9930" stroke-width="0.341463"/>
<circle cx="16.3925" cy="23.9023" r="1.87805" fill="#BB9930" stroke="#BB9930" stroke-width="0.341463"/>
<circle cx="24.074" cy="43.1946" r="1.02439" fill="#BB9930" stroke="#BB9930" stroke-width="0.341463"/>
<circle cx="25.2682" cy="15.3654" r="1.19512" fill="#BB9930" stroke="#BB9930" stroke-width="0.341463"/>
<circle cx="42.1717" cy="25.4383" r="1.02439" fill="#BB9930" stroke="#BB9930" stroke-width="0.341463"/>
<circle cx="34.4869" cy="53.9508" r="1.19512" fill="#BB9930" stroke="#BB9930" stroke-width="0.341463"/>
<circle cx="37.9049" cy="45.4147" r="1.19512" fill="#BB9930" stroke="#BB9930" stroke-width="0.341463"/>
<path d="M40.4059 5.56862L40.2352 5.56452L40.2352 5.56437L40.2352 5.5637L40.2353 5.56094L40.2355 5.5498L40.2364 5.5059C40.2371 5.46735 40.238 5.41063 40.2388 5.33829C40.2406 5.19358 40.242 4.9864 40.2411 4.73693C40.2391 4.23772 40.2273 3.5704 40.1881 2.89602C40.1488 2.22004 40.0823 1.54377 39.9726 1.02388C39.9175 0.763113 39.8534 0.550493 39.7808 0.399199C39.7041 0.239215 39.6377 0.188662 39.6016 0.178365C39.5374 0.160001 39.4169 0.171263 39.2257 0.249455C39.0421 0.324567 38.8224 0.449143 38.577 0.612278C38.0869 0.93803 37.5167 1.4024 36.9641 1.88391C36.4125 2.36461 35.883 2.85835 35.4743 3.24109C35.4458 3.26774 35.4179 3.29387 35.3907 3.31944C35.2225 3.47696 35.0774 3.61295 34.9643 3.71636C34.8986 3.7764 34.8424 3.82675 34.7979 3.86454C34.7602 3.89661 34.7141 3.93455 34.6764 3.95351C34.6243 3.97962 34.5745 3.97475 34.5438 3.96671C34.5141 3.95895 34.4909 3.94565 34.4764 3.93617C34.4472 3.91709 34.421 3.89201 34.4002 3.87035C34.3567 3.82516 34.3059 3.76163 34.2526 3.69144C34.1933 3.61341 34.1228 3.51618 34.048 3.4129C33.9896 3.33236 33.9286 3.24816 33.8681 3.1665C33.7257 2.97432 33.5798 2.78691 33.4484 2.64862C33.3826 2.57928 33.3249 2.52715 33.277 2.49352C33.2308 2.46104 33.2102 2.45756 33.2102 2.4572C33.2102 2.45714 33.2106 2.45715 33.2114 2.45715C32.9673 2.45715 32.62 2.61298 32.2486 2.96285C31.8825 3.30767 31.5123 3.82392 31.2226 4.49971C31.0467 4.90992 31.0153 5.3551 30.9996 5.73321C30.9984 5.7628 30.9972 5.79229 30.9961 5.82151C30.9902 5.97251 30.9846 6.11633 30.9685 6.23121C30.9588 6.30052 30.9438 6.37128 30.9168 6.43331C30.8896 6.49599 30.8435 6.56473 30.7635 6.60485C30.6562 6.6587 30.3141 6.84519 29.9682 7.06484C29.7954 7.17455 29.6244 7.29086 29.4823 7.40163C29.3491 7.50546 29.2533 7.59543 29.2019 7.66381C29.2021 7.66438 29.2024 7.66497 29.2026 7.66558C29.2145 7.69465 29.2444 7.74115 29.3019 7.80405C29.4153 7.92799 29.6021 8.07933 29.8389 8.23868C30.3107 8.55625 30.9469 8.88328 31.4983 9.06711C31.6342 9.11241 31.8354 9.16508 32.0687 9.22615L32.0872 9.23101C32.3251 9.2933 32.5907 9.36315 32.8346 9.43916C33.0758 9.51434 33.3082 9.59918 33.4749 9.69434C33.5572 9.7413 33.6374 9.79846 33.6927 9.86934C33.7438 9.93482 33.7798 10.0219 33.7638 10.1194C33.7648 10.1461 33.7604 10.1705 33.7543 10.1906C33.743 10.2277 33.7236 10.2578 33.7077 10.279C33.6756 10.3217 33.6304 10.3636 33.584 10.4024C33.4891 10.4819 33.3499 10.5805 33.1887 10.6928C33.1581 10.7142 33.1265 10.7361 33.094 10.7587C32.7792 10.9775 32.3806 11.2545 31.9789 11.5858C31.0841 12.3237 30.2305 13.2858 30.2267 14.3972C30.2525 14.4095 30.2956 14.4247 30.3607 14.4398C30.5323 14.4796 30.7835 14.5028 31.0596 14.5186C31.2201 14.5277 31.379 14.534 31.5314 14.54C31.6442 14.5445 31.7535 14.5488 31.8572 14.554C31.9754 14.56 32.0838 14.5671 32.1719 14.5772C32.2159 14.5822 32.2575 14.5882 32.294 14.5957C32.3279 14.6028 32.3685 14.6133 32.4044 14.6313C32.4776 14.668 32.5174 14.7337 32.5392 14.7783C32.5631 14.8271 32.5806 14.883 32.5947 14.9362C32.6104 14.9955 32.6265 15.0716 32.6421 15.1454C32.6524 15.1944 32.6626 15.2424 32.6723 15.284C32.7001 15.4031 32.7299 15.499 32.7671 15.5628C32.7944 15.6098 32.8133 15.6202 32.8247 15.6224C33.0353 15.5912 33.3053 15.5324 33.6197 15.461C33.679 15.4476 33.7397 15.4337 33.8018 15.4195C34.0748 15.3571 34.3732 15.2889 34.6823 15.2256C35.4387 15.0705 36.2785 14.94 37.0101 14.9923C37.4934 15.0268 38.019 15.2654 38.5391 15.5762C39.0527 15.8833 39.582 16.2742 40.0846 16.6454L40.1129 16.6663C40.6282 17.0469 41.112 17.4027 41.5366 17.641C41.7485 17.7599 41.9384 17.8453 42.1042 17.8905C42.2704 17.9358 42.3991 17.9369 42.4976 17.9041C42.5523 17.8858 42.6034 17.8418 42.6452 17.744C42.6884 17.6429 42.7151 17.4976 42.7209 17.3077C42.7326 16.9289 42.6606 16.4223 42.5363 15.859C42.2886 14.7357 41.8438 13.4318 41.509 12.5737L41.4509 12.4248L41.5957 12.357C42.5785 11.8969 44.0259 11.1195 45.1744 10.2843C45.7495 9.86608 46.241 9.43948 46.5625 9.03692C46.8899 8.62694 47.0084 8.28368 46.9313 8.01401C46.8955 7.8887 46.7867 7.74658 46.5879 7.59337C46.392 7.44242 46.1265 7.29432 45.8097 7.15156C45.1766 6.86626 44.3637 6.61347 43.5561 6.40289C42.75 6.1927 41.9555 6.02622 41.3621 5.91223C41.0656 5.85527 40.8196 5.81148 40.6478 5.78195C40.562 5.76719 40.4947 5.756 40.449 5.74851L40.3969 5.74007L40.3837 5.73797L40.3805 5.73745L40.3797 5.73733L40.3795 5.7373L40.4059 5.56862ZM40.4059 5.56862L40.2352 5.56456L40.2316 5.71414L40.3794 5.73729L40.4059 5.56862Z" fill="#BB9930" stroke="#BB9930" stroke-width="0.341463" stroke-linecap="round"/>
<path d="M90.6267 3.68543V3.83231C89.876 3.83231 89.2232 4.07711 88.6683 4.56671C88.1134 5.02366 87.836 5.6275 87.836 6.37821V42.2656H87.1505L69.5251 6.42717V39.6218C69.5251 40.3725 69.8025 40.9927 70.3574 41.4823C70.9123 41.9392 71.5651 42.1677 72.3158 42.1677V42.2656H66V42.1677C66.7507 42.1677 67.4035 41.9392 67.9584 41.4823C68.5133 40.9927 68.7907 40.3725 68.7907 39.6218V6.52509C68.7907 5.74174 68.5133 5.10526 67.9584 4.61567C67.4361 4.09343 66.7834 3.83231 66 3.83231V3.68543H70.2595L87.1505 38.0551V6.32925C87.1505 5.57854 86.8568 4.9747 86.2693 4.51775C85.7144 4.06079 85.0616 3.83231 84.3109 3.83231V3.68543H90.6267Z" fill="#BB9930"/>
<path d="M105.653 3.68543C107.449 3.68543 109.13 4.19135 110.696 5.20318C112.296 6.21502 113.683 7.6022 114.858 9.36475C116.033 11.0947 116.947 13.1346 117.6 15.4847C118.285 17.8348 118.628 20.3317 118.628 22.9755C118.628 25.652 118.285 28.1652 117.6 30.5153C116.947 32.8327 116.033 34.8727 114.858 36.6353C113.683 38.3652 112.296 39.736 110.696 40.7479C109.13 41.7597 107.449 42.2656 105.653 42.2656C103.858 42.2656 102.177 41.7597 100.611 40.7479C99.0439 39.736 97.673 38.3652 96.498 36.6353C95.323 34.8727 94.3927 32.8327 93.7073 30.5153C93.0219 28.1652 92.6792 25.652 92.6792 22.9755C92.6792 20.3317 93.0219 17.8348 93.7073 15.4847C94.3927 13.1346 95.323 11.0947 96.498 9.36475C97.673 7.6022 99.0439 6.21502 100.611 5.20318C102.177 4.19135 103.858 3.68543 105.653 3.68543ZM105.653 41.5802C107.155 41.5802 108.542 41.0906 109.815 40.1114C111.121 39.1322 112.23 37.8103 113.144 36.1457C114.091 34.4484 114.825 32.4737 115.347 30.2215C115.902 27.9694 116.18 25.5541 116.18 22.9755C116.18 20.397 115.902 17.9816 115.347 15.7295C114.825 13.4774 114.091 11.519 113.144 9.85434C112.23 8.15708 111.121 6.81885 109.815 5.83966C108.542 4.86047 107.155 4.37087 105.653 4.37087C104.152 4.37087 102.765 4.86047 101.492 5.83966C100.219 6.81885 99.1092 8.15708 98.1626 9.85434C97.2161 11.519 96.4654 13.4774 95.9105 15.7295C95.3883 17.9816 95.1271 20.397 95.1271 22.9755C95.1271 25.5541 95.3883 27.9694 95.9105 30.2215C96.4654 32.4737 97.2161 34.4484 98.1626 36.1457C99.1092 37.8103 100.219 39.1322 101.492 40.1114C102.765 41.0906 104.152 41.5802 105.653 41.5802Z" fill="#BB9930"/>
<path d="M123.488 39.4749V6.52509C123.488 5.74174 123.21 5.08894 122.655 4.56671C122.133 4.04447 121.48 3.78336 120.697 3.78336V3.68543H132.496C133.867 3.68543 135.156 3.94655 136.364 4.46879C137.572 4.95839 138.616 5.64382 139.498 6.52509C140.379 7.37372 141.064 8.38556 141.554 9.56059C142.076 10.703 142.337 11.9433 142.337 13.2815C142.305 15.3378 141.717 17.182 140.575 18.814C139.465 20.4133 137.996 21.572 136.168 22.2901C137.376 22.4206 138.502 22.7797 139.547 23.3672C140.624 23.9547 141.554 24.6891 142.337 25.5704C143.121 26.4517 143.724 27.4635 144.149 28.6059C144.606 29.7483 144.834 30.9559 144.834 32.2289C144.834 33.5998 144.573 34.9053 144.051 36.1457C143.529 37.3533 142.827 38.4141 141.946 39.328C141.064 40.2419 140.02 40.96 138.812 41.4823C137.637 42.0045 136.364 42.2656 134.993 42.2656H120.697V42.1677C121.48 42.1677 122.133 41.9066 122.655 41.3843C123.21 40.8621 123.488 40.2256 123.488 39.4749ZM125.642 39.9645C125.642 40.4215 125.789 40.8131 126.083 41.1395C126.409 41.4333 126.801 41.5802 127.258 41.5802H133.329C134.569 41.5802 135.728 41.3354 136.805 40.8458C137.915 40.3562 138.877 39.6871 139.693 38.8384C140.509 37.9898 141.146 36.9943 141.603 35.8519C142.092 34.7095 142.337 33.5018 142.337 32.2289C142.337 30.9559 142.092 29.7483 141.603 28.6059C141.113 27.4635 140.46 26.4843 139.644 25.6683C138.828 24.8197 137.866 24.1506 136.756 23.661C135.679 23.1714 134.504 22.9266 133.231 22.9266C132.97 22.9266 132.692 22.9429 132.398 22.9755C132.105 23.0082 131.827 23.0571 131.566 23.1224C131.24 23.1877 130.913 23.2693 130.587 23.3672L130.538 23.2203C130.799 23.1224 131.044 23.0245 131.272 22.9266C131.501 22.8613 131.746 22.796 132.007 22.7307C132.268 22.6328 132.513 22.5512 132.741 22.4859C133.753 22.2248 134.7 21.8005 135.581 21.213C136.462 20.6255 137.213 19.9237 137.833 19.1077C138.486 18.2917 138.992 17.3941 139.351 16.4149C139.71 15.4357 139.889 14.4076 139.889 13.3305C139.889 12.1554 139.677 11.0294 139.253 9.95227C138.828 8.87515 138.225 7.9286 137.441 7.11261C136.691 6.26397 135.809 5.59486 134.797 5.10526C133.786 4.61567 132.692 4.37087 131.517 4.37087H127.258C126.801 4.37087 126.409 4.53407 126.083 4.86046C125.789 5.15422 125.642 5.52958 125.642 5.98654V39.9645Z" fill="#BB9930"/>
<path d="M154.634 3.68543V3.78336C153.85 3.78336 153.181 4.04447 152.626 4.56671C152.104 5.08894 151.843 5.72542 151.843 6.47613V39.9645C151.843 40.4215 151.99 40.8131 152.284 41.1395C152.61 41.4333 153.002 41.5802 153.459 41.5802H162.859C163.708 41.5475 164.475 41.2701 165.16 40.7479C165.878 40.2256 166.302 39.5565 166.433 38.7405H166.58L166.09 42.951H165.992C165.992 42.7878 165.911 42.6246 165.748 42.4614C165.617 42.3309 165.47 42.2656 165.307 42.2656H146.898V42.1187C147.681 42.1187 148.334 41.8739 148.856 41.3843C149.411 40.8621 149.689 40.2093 149.689 39.4259V6.52509C149.689 5.74174 149.411 5.08894 148.856 4.56671C148.334 4.04447 147.681 3.78336 146.898 3.78336V3.68543H154.634Z" fill="#BB9930"/>
<path d="M186.965 3.68543C187.16 3.68543 187.324 3.62015 187.454 3.4896C187.585 3.3264 187.65 3.1632 187.65 3H187.748L188.238 7.16157L188.091 7.21053C187.96 6.36189 187.536 5.67646 186.818 5.15422C186.132 4.63199 185.365 4.37087 184.517 4.37087H175.067C174.611 4.37087 174.235 4.53407 173.941 4.86046C173.68 5.15422 173.55 5.52958 173.55 5.98654V22.6328H182.118C182.868 22.6328 183.472 22.3554 183.929 21.8005C184.386 21.213 184.615 20.5439 184.615 19.7931H184.761V26.1089H184.615C184.615 25.3582 184.386 24.7054 183.929 24.1506C183.472 23.5957 182.868 23.3182 182.118 23.3182H173.55V39.9645C173.55 40.4215 173.697 40.8131 173.99 41.1395C174.317 41.4333 174.708 41.5802 175.165 41.5802H186.328C187.177 41.5802 187.96 41.3191 188.678 40.7968C189.429 40.2746 189.837 39.5891 189.902 38.7405L190.049 38.7895L189.56 43H189.462C189.462 42.8042 189.396 42.6246 189.266 42.4614C189.135 42.3309 188.972 42.2656 188.776 42.2656H168.605V42.1187C169.388 42.1187 170.041 41.8576 170.563 41.3354C171.118 40.8131 171.395 40.1767 171.395 39.4259V6.52509C171.395 5.7091 171.118 5.0563 170.563 4.56671C170.041 4.04447 169.388 3.78336 168.605 3.78336V3.68543H186.965Z" fill="#BB9930"/>
<path d="M238.449 3.7335V3.8802C237.583 3.8802 236.83 4.12469 236.19 4.61369C235.55 5.07009 235.23 5.67319 235.23 6.42298V42.2665H234.44L214.114 6.47188V39.6259C214.114 40.3757 214.434 40.9951 215.074 41.4841C215.714 41.9405 216.467 42.1687 217.332 42.1687V42.2665H210.049V42.1687C210.915 42.1687 211.667 41.9405 212.307 41.4841C212.947 40.9951 213.267 40.3757 213.267 39.6259V6.56968C213.267 5.78729 212.947 5.15159 212.307 4.66259C211.705 4.14099 210.952 3.8802 210.049 3.8802V3.7335H214.961L234.44 38.0611V6.37408C234.44 5.62429 234.101 5.02119 233.424 4.56479C232.784 4.10839 232.031 3.8802 231.165 3.8802V3.7335H238.449Z" fill="#BB9930"/>
<path d="M261.988 3.7335C262.214 3.7335 262.402 3.6683 262.553 3.5379C262.703 3.3749 262.779 3.2119 262.779 3.0489H262.892L263.456 7.20538L263.287 7.25428C263.136 6.40668 262.647 5.72209 261.819 5.20049C261.028 4.67889 260.144 4.41809 259.165 4.41809H248.268C247.741 4.41809 247.308 4.58109 246.97 4.90709C246.669 5.20049 246.518 5.57539 246.518 6.03178V22.6577H256.399C257.264 22.6577 257.961 22.3806 258.488 21.8264C259.015 21.2396 259.278 20.5713 259.278 19.8215H259.448V26.1296H259.278C259.278 25.3798 259.015 24.7278 258.488 24.1736C257.961 23.6194 257.264 23.3423 256.399 23.3423H246.518V39.9682C246.518 40.4246 246.687 40.8158 247.026 41.1418C247.403 41.4352 247.854 41.5819 248.381 41.5819H261.254C262.233 41.5819 263.136 41.3211 263.964 40.7995C264.83 40.2779 265.301 39.5933 265.376 38.7457L265.545 38.7946L264.981 43H264.868C264.868 42.8044 264.792 42.6251 264.642 42.4621C264.491 42.3317 264.303 42.2665 264.077 42.2665H240.816V42.1198C241.719 42.1198 242.472 41.859 243.074 41.3374C243.714 40.8158 244.034 40.1801 244.034 39.4303V6.56968C244.034 5.75469 243.714 5.10269 243.074 4.61369C242.472 4.0921 241.719 3.8313 240.816 3.8313V3.7335H261.988Z" fill="#BB9930"/>
<path d="M265.572 23C265.572 20.3268 266.062 17.8329 267.04 15.5183C268.019 13.1711 269.355 11.1337 271.049 9.40587C272.743 7.64548 274.719 6.25998 276.977 5.24939C279.236 4.23879 281.645 3.7335 284.204 3.7335H288.044C288.345 3.7335 288.571 3.6683 288.721 3.5379C288.872 3.3749 288.947 3.1956 288.947 3H289.116L293.464 7.20538L293.351 7.25428C292.673 6.63488 291.977 6.14588 291.262 5.78729C290.584 5.39609 289.926 5.10269 289.286 4.90709C288.646 4.71149 288.044 4.58109 287.479 4.51589C286.914 4.45069 286.425 4.41809 286.011 4.41809H285.277C282.906 4.41809 280.685 4.90709 278.615 5.88509C276.544 6.86308 274.756 8.19967 273.251 9.89486C271.745 11.5575 270.56 13.5134 269.694 15.7628C268.828 18.0122 268.395 20.4246 268.395 23C268.395 25.5754 268.828 27.9878 269.694 30.2372C270.56 32.4866 271.745 34.4588 273.251 36.154C274.756 37.8166 276.544 39.1369 278.615 40.1149C280.685 41.0929 282.906 41.5819 285.277 41.5819C287.008 41.5819 288.665 41.3211 290.246 40.7995C291.826 40.2779 293.294 39.5444 294.649 38.599L294.706 38.7457C293.2 39.8541 291.544 40.718 289.737 41.3374C287.968 41.9568 286.067 42.2665 284.035 42.2665C281.513 42.2665 279.123 41.7612 276.864 40.7506C274.606 39.74 272.649 38.3708 270.992 36.643C269.336 34.8826 268.019 32.8452 267.04 30.5306C266.062 28.1834 265.572 25.6732 265.572 23Z" fill="#BB9930"/>
<path d="M295.855 3H296.024C296.024 3.4564 296.287 3.6846 296.814 3.6846H322.222C322.749 3.6846 323.012 3.4564 323.012 3H323.125L323.69 7.20538L323.52 7.25428C323.294 6.43928 322.805 5.77099 322.052 5.24939C321.3 4.69519 320.415 4.41809 319.399 4.41809H312.623C312.096 4.41809 311.645 4.58109 311.268 4.90709C310.93 5.20049 310.76 5.57539 310.76 6.03178V39.4303C310.76 40.1801 311.08 40.8158 311.72 41.3374C312.36 41.859 313.113 42.1198 313.978 42.1198V42.2665H305.058V42.1198C305.923 42.1198 306.676 41.8427 307.316 41.2885C307.994 40.7343 308.332 40.1149 308.332 39.4303V6.03178C308.332 5.57539 308.144 5.20049 307.768 4.90709C307.429 4.58109 306.996 4.41809 306.469 4.41809H299.637C298.621 4.41809 297.737 4.69519 296.984 5.24939C296.231 5.77099 295.742 6.43928 295.516 7.25428L295.346 7.20538L295.855 3Z" fill="#BB9930"/>
<path d="M316.409 42.1687C317.425 42.1687 318.291 41.9242 319.006 41.4352C319.759 40.9462 320.248 40.2779 320.474 39.4303L329.847 8.72127C330.11 7.87368 330.091 7.02608 329.79 6.17848C329.489 5.33089 329.225 4.51589 329 3.7335H332.161C332.049 4.0921 331.954 4.41809 331.879 4.71149C331.804 4.97229 331.823 5.28199 331.936 5.64059L342.381 39.8215C342.418 39.8867 342.494 40.0497 342.607 40.3105C342.757 40.5713 342.983 40.8484 343.284 41.1418C343.585 41.4026 343.981 41.6471 344.47 41.8753C344.997 42.0709 345.618 42.1687 346.333 42.1687V42.2665H338.259V42.1687C338.711 42.1361 339.087 42.0383 339.388 41.8753C339.652 41.7449 339.859 41.5656 340.009 41.3374C340.198 41.0766 340.216 40.718 340.066 40.2616L335.041 23.7824H326.12L321.095 40.1149C320.945 40.5713 320.945 40.9462 321.095 41.2396C321.283 41.5004 321.509 41.7123 321.773 41.8753C322.074 42.0383 322.45 42.1361 322.902 42.1687V42.2665H316.409V42.1687ZM326.29 23.0978H334.815L330.581 8.96577L326.29 23.0978Z" fill="#BB9930"/>
<path d="M348.719 3.8802V3.7335H356.229C357.772 3.7335 359.202 3.97799 360.52 4.46699C361.875 4.92339 363.06 5.55909 364.077 6.37408C365.093 7.18908 365.883 8.13447 366.448 9.21027C367.05 10.2861 367.351 11.4271 367.351 12.6333C367.351 13.6764 367.126 14.687 366.674 15.665C366.222 16.6104 365.582 17.458 364.754 18.2078C363.964 18.9576 363.004 19.6096 361.875 20.1638C360.783 20.6854 359.598 21.0603 358.318 21.2885C359.598 21.6145 360.896 22.1524 362.214 22.9022C363.569 23.6194 364.792 24.6789 365.883 26.0807C367.013 27.4825 367.935 29.2755 368.65 31.4597C369.403 33.6112 369.779 36.2681 369.779 39.4303V39.4792C369.742 40.229 370.043 40.8647 370.683 41.3863C371.36 41.9079 372.132 42.1687 372.998 42.1687V42.2665H368.537C368.198 42.2665 367.897 42.1687 367.634 41.9731C367.408 41.7449 367.295 41.4841 367.295 41.1907V36.5452C367.295 35.6976 367.22 34.7359 367.069 33.6601C366.919 32.5844 366.655 31.4923 366.279 30.3839C365.94 29.2755 365.451 28.1997 364.811 27.1565C364.208 26.0807 363.437 25.1353 362.496 24.3203C361.555 23.4727 360.407 22.8044 359.052 22.3154C357.734 21.7938 356.191 21.533 354.422 21.533V39.577C354.422 40.3268 354.742 40.9462 355.382 41.4352C356.022 41.9242 356.774 42.1687 357.64 42.1687V42.2665H348.719V42.1687C349.585 42.1687 350.338 41.9242 350.978 41.4352C351.618 40.9462 351.938 40.3431 351.938 39.6259V6.56968C351.938 5.78729 351.618 5.15159 350.978 4.66259C350.376 4.14099 349.623 3.8802 348.719 3.8802ZM354.422 20.7995C355.928 20.8647 357.32 20.7343 358.6 20.4083C359.88 20.0497 360.99 19.5118 361.931 18.7946C362.872 18.0774 363.606 17.1972 364.133 16.154C364.66 15.1108 364.924 13.9372 364.924 12.6333C364.924 11.4923 364.717 10.4328 364.303 9.45477C363.926 8.44417 363.362 7.58028 362.609 6.86308C361.856 6.11328 360.934 5.52649 359.842 5.10269C358.751 4.64629 357.527 4.41809 356.172 4.41809C355.683 4.41809 355.269 4.56479 354.93 4.85819C354.591 5.15159 354.422 5.49389 354.422 5.88509V20.7995Z" fill="#BB9930"/>
<path d="M374.361 38.6479C375.791 39.8541 377.165 40.6365 378.483 40.9951C379.8 41.3537 380.892 41.533 381.757 41.533H385.71C387.065 41.533 388.326 41.2885 389.492 40.7995C390.697 40.2779 391.732 39.5933 392.598 38.7457C393.501 37.8981 394.197 36.9201 394.687 35.8117C395.176 34.6707 395.421 33.4808 395.421 32.2421C395.421 30.9707 395.157 29.7808 394.63 28.6724C394.103 27.564 393.369 26.6023 392.428 25.7873C391.487 24.9397 390.396 24.2714 389.154 23.7824C387.912 23.2934 386.575 23.0326 385.145 23C383.526 22.9674 382.04 22.6903 380.685 22.1687C379.367 21.6471 378.219 20.9462 377.24 20.066C376.299 19.1858 375.565 18.1752 375.038 17.0342C374.512 15.8606 374.248 14.6381 374.248 13.3667C374.248 12.0302 374.549 10.7751 375.151 9.60147C375.754 8.42787 376.563 7.41728 377.579 6.56968C378.596 5.68949 379.781 5.00489 381.136 4.51589C382.529 3.99429 384.016 3.7335 385.597 3.7335H390.001C390.302 3.7335 390.528 3.6683 390.678 3.5379C390.829 3.3749 390.904 3.1956 390.904 3H391.073L395.421 7.20538L395.364 7.30318C393.934 6.09698 392.56 5.31459 391.243 4.95599C389.925 4.59739 388.834 4.41809 387.968 4.41809H386.556C384.825 4.41809 383.357 4.66259 382.153 5.15159C380.948 5.64059 379.969 6.29258 379.217 7.10758C378.464 7.92258 377.918 8.86797 377.579 9.94377C377.278 11.0196 377.128 12.1443 377.128 13.3178C377.128 14.3284 377.316 15.3716 377.692 16.4474C378.106 17.5232 378.652 18.4849 379.329 19.3325C380.007 20.1801 380.816 20.881 381.757 21.4352C382.698 21.9894 383.733 22.2665 384.863 22.2665H386.952C388.533 22.2665 390.001 22.5273 391.356 23.0489C392.748 23.5705 393.953 24.2877 394.969 25.2005C395.985 26.0807 396.795 27.1402 397.397 28.379C397.999 29.5852 398.3 30.8892 398.3 32.291C398.3 33.6601 397.999 34.9641 397.397 36.2029C396.832 37.4091 396.042 38.4686 395.026 39.3814C394.009 40.2616 392.842 40.9625 391.525 41.4841C390.208 42.0057 388.815 42.2665 387.347 42.2665H379.555C379.292 42.2665 379.085 42.3317 378.934 42.4621C378.821 42.6251 378.765 42.7881 378.765 42.9511H378.652L374.248 38.7457L374.361 38.6479Z" fill="#BB9930"/>
</svg>
