<svg width="125" height="40" viewBox="0 0 125 40" fill="none" xmlns="http://www.w3.org/2000/svg">
<path d="M24.6267 0.685434V0.832314C23.876 0.832314 23.2232 1.07711 22.6683 1.56671C22.1134 2.02366 21.836 2.6275 21.836 3.37821V39.2656H21.1505L3.52509 3.42717V36.6218C3.52509 37.3725 3.80253 37.9927 4.3574 38.4823C4.91228 38.9392 5.56507 39.1677 6.31579 39.1677V39.2656H0V39.1677C0.750714 39.1677 1.40351 38.9392 1.95838 38.4823C2.51326 37.9927 2.7907 37.3725 2.7907 36.6218V3.52509C2.7907 2.74174 2.51326 2.10526 1.95838 1.61567C1.43615 1.09343 0.783354 0.832314 0 0.832314V0.685434H4.25949L21.1505 35.0551V3.32925C21.1505 2.57854 20.8568 1.9747 20.2693 1.51775C19.7144 1.06079 19.0616 0.832314 18.3109 0.832314V0.685434H24.6267Z" fill="#BB9930"/>
<path d="M39.6535 0.685434C41.4486 0.685434 43.1296 1.19135 44.6963 2.20318C46.2956 3.21502 47.6828 4.6022 48.8579 6.36475C50.0329 8.09466 50.9468 10.1346 51.5996 12.4847C52.285 14.8348 52.6278 17.3317 52.6278 19.9755C52.6278 22.652 52.285 25.1652 51.5996 27.5153C50.9468 29.8327 50.0329 31.8727 48.8579 33.6353C47.6828 35.3652 46.2956 36.736 44.6963 37.7479C43.1296 38.7597 41.4486 39.2656 39.6535 39.2656C37.8583 39.2656 36.1773 38.7597 34.6106 37.7479C33.0439 36.736 31.673 35.3652 30.498 33.6353C29.323 31.8727 28.3927 29.8327 27.7073 27.5153C27.0219 25.1652 26.6792 22.652 26.6792 19.9755C26.6792 17.3317 27.0219 14.8348 27.7073 12.4847C28.3927 10.1346 29.323 8.09466 30.498 6.36475C31.673 4.6022 33.0439 3.21502 34.6106 2.20318C36.1773 1.19135 37.8583 0.685434 39.6535 0.685434ZM39.6535 38.5802C41.1549 38.5802 42.5421 38.0906 43.815 37.1114C45.1206 36.1322 46.2304 34.8103 47.1443 33.1457C48.0908 31.4484 48.8252 29.4737 49.3475 27.2215C49.9023 24.9694 50.1798 22.5541 50.1798 19.9755C50.1798 17.397 49.9023 14.9816 49.3475 12.7295C48.8252 10.4774 48.0908 8.51897 47.1443 6.85434C46.2304 5.15708 45.1206 3.81885 43.815 2.83966C42.5421 1.86047 41.1549 1.37087 39.6535 1.37087C38.152 1.37087 36.7648 1.86047 35.4919 2.83966C34.2189 3.81885 33.1092 5.15708 32.1626 6.85434C31.2161 8.51897 30.4654 10.4774 29.9105 12.7295C29.3883 14.9816 29.1271 17.397 29.1271 19.9755C29.1271 22.5541 29.3883 24.9694 29.9105 27.2215C30.4654 29.4737 31.2161 31.4484 32.1626 33.1457C33.1092 34.8103 34.2189 36.1322 35.4919 37.1114C36.7648 38.0906 38.152 38.5802 39.6535 38.5802Z" fill="#BB9930"/>
<path d="M57.4878 36.4749V3.52509C57.4878 2.74174 57.2103 2.08894 56.6554 1.56671C56.1332 1.04447 55.4804 0.783355 54.6971 0.783355V0.685434H66.4963C67.8672 0.685434 69.1565 0.946553 70.3641 1.46879C71.5718 1.95839 72.6163 2.64382 73.4975 3.52509C74.3788 4.37372 75.0643 5.38556 75.5538 6.56059C76.0761 7.70298 76.3372 8.94329 76.3372 10.2815C76.3046 12.3378 75.717 14.182 74.5747 15.814C73.4649 17.4133 71.9961 18.572 70.1683 19.2901C71.376 19.4206 72.502 19.7797 73.5465 20.3672C74.6236 20.9547 75.5538 21.6891 76.3372 22.5704C77.1206 23.4517 77.7244 24.4635 78.1487 25.6059C78.6057 26.7483 78.8341 27.9559 78.8341 29.2289C78.8341 30.5998 78.573 31.9053 78.0508 33.1457C77.5285 34.3533 76.8268 35.4141 75.9455 36.328C75.0643 37.2419 74.0198 37.96 72.8121 38.4823C71.6371 39.0045 70.3641 39.2656 68.9933 39.2656H54.6971V39.1677C55.4804 39.1677 56.1332 38.9066 56.6554 38.3843C57.2103 37.8621 57.4878 37.2256 57.4878 36.4749ZM59.642 36.9645C59.642 37.4215 59.7889 37.8131 60.0826 38.1395C60.409 38.4333 60.8007 38.5802 61.2576 38.5802H67.3286C68.5689 38.5802 69.7277 38.3354 70.8048 37.8458C71.9145 37.3562 72.8774 36.6871 73.6934 35.8384C74.5094 34.9898 75.1459 33.9943 75.6028 32.8519C76.0924 31.7095 76.3372 30.5018 76.3372 29.2289C76.3372 27.9559 76.0924 26.7483 75.6028 25.6059C75.1132 24.4635 74.4604 23.4843 73.6444 22.6683C72.8284 21.8197 71.8656 21.1506 70.7558 20.661C69.6787 20.1714 68.5037 19.9266 67.2307 19.9266C66.9696 19.9266 66.6922 19.9429 66.3984 19.9755C66.1046 20.0082 65.8272 20.0571 65.5661 20.1224C65.2397 20.1877 64.9133 20.2693 64.5869 20.3672L64.5379 20.2203C64.799 20.1224 65.0439 20.0245 65.2723 19.9266C65.5008 19.8613 65.7456 19.796 66.0067 19.7307C66.2678 19.6328 66.5126 19.5512 66.7411 19.4859C67.753 19.2248 68.6995 18.8005 69.5808 18.213C70.462 17.6255 71.2128 16.9237 71.8329 16.1077C72.4857 15.2917 72.9916 14.3941 73.3507 13.4149C73.7097 12.4357 73.8892 11.4076 73.8892 10.3305C73.8892 9.15545 73.6771 8.02938 73.2527 6.95227C72.8284 5.87515 72.2246 4.9286 71.4412 4.11261C70.6905 3.26397 69.8092 2.59486 68.7974 2.10526C67.7856 1.61567 66.6922 1.37087 65.5171 1.37087H61.2576C60.8007 1.37087 60.409 1.53407 60.0826 1.86046C59.7889 2.15422 59.642 2.52958 59.642 2.98654V36.9645Z" fill="#BB9930"/>
<path d="M88.6337 0.685434V0.783355C87.8504 0.783355 87.1812 1.04447 86.6264 1.56671C86.1041 2.08894 85.843 2.72542 85.843 3.47613V36.9645C85.843 37.4215 85.9899 37.8131 86.2836 38.1395C86.61 38.4333 87.0017 38.5802 87.4587 38.5802H96.8589C97.7076 38.5475 98.4746 38.2701 99.16 37.7479C99.8781 37.2256 100.302 36.5565 100.433 35.7405H100.58L100.09 39.951H99.9923C99.9923 39.7878 99.9107 39.6246 99.7475 39.4614C99.617 39.3309 99.4701 39.2656 99.3069 39.2656H80.8981V39.1187C81.6814 39.1187 82.3342 38.8739 82.8565 38.3843C83.4114 37.8621 83.6888 37.2093 83.6888 36.4259V3.52509C83.6888 2.74174 83.4114 2.08894 82.8565 1.56671C82.3342 1.04447 81.6814 0.783355 80.8981 0.783355V0.685434H88.6337Z" fill="#BB9930"/>
<path d="M120.965 0.685434C121.16 0.685434 121.324 0.620155 121.454 0.489596C121.585 0.326397 121.65 0.163199 121.65 0H121.748L122.238 4.16157L122.091 4.21053C121.96 3.36189 121.536 2.67646 120.818 2.15422C120.132 1.63199 119.365 1.37087 118.517 1.37087H109.067C108.611 1.37087 108.235 1.53407 107.941 1.86046C107.68 2.15422 107.55 2.52958 107.55 2.98654V19.6328H116.118C116.868 19.6328 117.472 19.3554 117.929 18.8005C118.386 18.213 118.615 17.5439 118.615 16.7931H118.761V23.1089H118.615C118.615 22.3582 118.386 21.7054 117.929 21.1506C117.472 20.5957 116.868 20.3182 116.118 20.3182H107.55V36.9645C107.55 37.4215 107.697 37.8131 107.99 38.1395C108.317 38.4333 108.708 38.5802 109.165 38.5802H120.328C121.177 38.5802 121.96 38.3191 122.678 37.7968C123.429 37.2746 123.837 36.5891 123.902 35.7405L124.049 35.7895L123.56 40H123.462C123.462 39.8042 123.396 39.6246 123.266 39.4614C123.135 39.3309 122.972 39.2656 122.776 39.2656H102.605V39.1187C103.388 39.1187 104.041 38.8576 104.563 38.3354C105.118 37.8131 105.395 37.1767 105.395 36.4259V3.52509C105.395 2.7091 105.118 2.0563 104.563 1.56671C104.041 1.04447 103.388 0.783355 102.605 0.783355V0.685434H120.965Z" fill="#BB9930"/>
</svg>
