<svg version="1.0" xmlns="http://www.w3.org/2000/svg" width="196" height="196" viewBox="0 0 147 147"><path d="M96.3 4.5c-5.5 4.8-7 5.4-7.9 3-1.4-3.6-6.7.6-7.9 6.3-.4 1.8-1.5 3.7-2.6 4.2-1 .6-1.9 1.5-1.9 2 0 1.2 7.3 5 9.5 5 2.4 0 1.8 1.3-2.4 5-5.2 4.6-5.6 7.1-1.3 8.2 1.7.5 3.2 1.3 3.2 1.9 0 .8 1.3.9 3.8.4 6.9-1.3 8.4-1.3 10.2.4.9.9 2.3 1.7 3 1.9.8.2 2.6 1.2 4.1 2.3 1.5 1 3.3 1.9 4.1 1.9 1 0 .9.3-.2 1-1 .6-1.1 1-.2 1 .7 0 1.2 1.3 1.2 3 0 3.9 4.2 12.2 7.4 14.8 1.4 1.1 2.4 2.7 2.2 3.8-.2 1-.1 1.3.1.6.3-.8 1.1-1.1 2.1-.6 1 .4 4.2.9 7.3 1.1 4.3.4 5.9.1 7.3-1.2 2.1-2.1 1.7-3.4-1.5-5.4l-2.4-1.5 2.3 2.3c3.1 3.1 1.4 5.1-4.2 5.1-11.5-.1-11.6-3.7-.1-6.3 1.6-.4 1.5-.5-.5-.6-1.4 0-4.3.8-6.3 1.8l-3.8 1.9-2.6-2.6c-3.1-3.1-6.2-9.8-6.3-13.4 0-2.9.1-2.9 8.3-1.3.9.2 1.5-.1 1.1-.6-.3-.5-2-.9-3.7-.9-3.7 0-5.1-.9-5.4-3-.1-.8-.9-4.2-1.7-7.4-.9-3.2-1.5-6-1.4-6.1.2-.1 1.8-1 3.5-1.9 4.5-2.3 10.3-7.5 10.3-9.3 0-1.7-6.9-4.8-12.7-5.8-2.4-.4-4.3-.7-4.4-.8 0-.1-.2-2.5-.5-5.2-1.1-11.2-1.6-11.5-9.1-5zm-66 1.4c-8.5 5.3-4.4 12.3 13.5 23.1 3.9 2.5 7.1 4.9 6.9 5.5C49.6 37.6 32 44.7 32 42c0-.5-.8-.6-1.9-.3-4.2 1.1-11.8-5.1-10.8-8.8.4-1.6.3-1.9-.5-1.1C16 34.6 23.5 43 29 43c2.5 0 2.5.5 0 4.5-2 3.3-8 6.5-12 6.5-1 0-2.1.4-2.4.9-.8 1.2 6.9-.6 10.5-2.5 1.6-.8 4-3.2 5.4-5.4 1.9-3.1 3.2-4 5.3-4 3.5-.1 9.8-2.9 13.9-6.4 2.6-2.2 3.6-2.5 5.2-1.7 3.9 2.1 12.1.7 12.1-2 0-.6-.7-.3-1.6.5-3.1 3.1-13.8 1.2-12.7-2.3.4-1.3.3-1.4-.5-.2-1.8 2.6-21.1-10.1-24.1-15.7C25.3 10 30.7 4.1 37 5.5c5.9 1.3 15.2 14.3 15.3 21.1 0 1.3.3 2.4.8 2.4 1.4 0-.1-5.4-3.4-11.9C44.3 6.3 36.7 2 30.3 5.9z"/><path d="M72.9 17.7c-2.2 5.9-3.1 13.1-2.6 20.8.6 9.1 4 19.5 6.4 19.5 1 0 1.3-.5.8-1.8-3.9-9.5-5.1-15.7-4.6-25.4.1-2.1.5-2.5 2.1-2.1 2.4.6 9.5-.6 8.6-1.5-.4-.3-2.7-.5-5.3-.3l-4.5.3.5-3.4c.3-1.8.9-4.5 1.2-6.1 1-3.6-1.2-3.6-2.6 0zM21 30.9c0 .6.5 1.1 1.1 1.1 1.6 0 6.2 3.8 7.6 6.3.7 1.2 1.2 1.7 1.3 1.1 0-1.8-3.5-5.7-6.9-7.7-1.7-1-3.1-1.3-3.1-.8zm105.5 4.7c-5 1.7-9.2 4.1-11.6 6.5-3.4 3.4-2 3.1 2-.3 4.2-3.6 12.7-6.8 18-6.8 6.1 0 10 3.4 10.1 8.7 0 4.5-2.6 5.7-13.5 6.4l-9 .5 8.5.2c10.5.2 15-1.8 15-6.9 0-4.1-1.5-6.6-5-8.4-3.6-1.8-9.2-1.8-14.5.1zm-62.9 2c-2 1.9-2 2.9 0 4.8 1.8 1.8 1.7 1.8 3.8 1 2.2-.9 2-5.1-.3-6.4-1.5-.7-2.3-.6-3.5.6zm22.8 7.3c-8.5 5.2-7.9 18.6 1.1 23 10.6 5.2 22.2-4.7 18.5-15.9-2.7-8.1-12.3-11.6-19.6-7.1zm14.6-1.1c0 .9 6 4.6 6.4 4 .2-.1-1.2-1.3-3-2.5-1.9-1.2-3.4-1.9-3.4-1.5zm-45.7 1.7c-6.2 2.6-8.2 11.1-3.7 16.4 6.6 7.9 19.5 2.6 18.6-7.6-.6-7.2-8.1-11.6-14.9-8.8zM.9 50.4C3.5 53.5 13 57 13 54.9c0-.5-1.3-.9-2.9-.9-1.5 0-4.6-1.2-6.7-2.6-2.1-1.5-3.2-1.9-2.5-1zm37.6 9c-1.3 1.9-1.3 2.8-.4 5 .7 1.4 2.1 2.8 3.1 3.2 2.7.8 6.8-2.2 6.8-5.1 0-5.3-6.6-7.5-9.5-3.1zm69.8 4.3c-1.7.6-1.6 3.8 0 5.2 2.1 1.7 5.6-1.2 4.1-3.5-1.2-2-2.3-2.5-4.1-1.7z"/><path d="M68.1 66.7c-4.7 2.3-8.1 8-8.3 13.6-.1 8.2 5.4 14.5 13.6 15.4 5.7.7 9.7-.9 13.6-5.3 10.9-12.5-3.8-31.1-18.9-23.7zm-24.8 3.7c-3.7 1.7-5.5 4.6-5.6 9.4-.1 2.7.6 4.1 3.1 6.3 9.2 8.2 21.8-4 13.5-13-3.4-3.7-6.8-4.5-11-2.7zm57.2 1.5c-5.2 2.2-8 8.4-6.2 13.8 1.3 4 6.6 8.3 9.5 7.8.9-.2 2.5-.4 3.4-.4 2.9-.1 7.7-5.3 8.3-8.9 1.4-8.3-7.3-15.4-15-12.3zm18.5 2.8c0 .5.5 1.5 1 2.3.7 1.2.9 1 .7-.8-.1-1.9-1.7-3.3-1.7-1.5zm3 7.8c0 1.9 5.7 7.3 9.8 9.4 4.4 2.3 7.8 2.6 10.2 1.1 1-.6.4-.8-2.1-.4-4.6.8-10.6-2.2-14.8-7.3-1.7-2.1-3.1-3.3-3.1-2.8zM47.5 93.2c-7.3 6.5-3.1 17.3 6.7 17 4.5-.1 8.8-4.9 8.8-9.8 0-7.8-9.6-12.3-15.5-7.2zM88 94.5c-5.6 3-6.7 11-2.1 15.6 5.4 5.4 13.9 2.9 16-4.7 1-3.5-1-8.8-3.8-10.3-2.9-1.6-7.7-1.9-10.1-.6zm-20.5 6c-5 4.9-1.5 13.5 5.5 13.5 3.9 0 8-4.2 8-8.2 0-3.9-4-7.8-8-7.8-1.9 0-4 .9-5.5 2.5z"/><path d="M61.3 109.7c-1.8.6-1.6 5 .2 5.7 2.3.8 4.5-.4 4.5-2.5 0-2-2.8-3.9-4.7-3.2zm20.1 5.8c-4.6 4.6-1.5 11.4 5.2 11.5 4.8 0 8.4-5.3 6.2-9.3-2.7-5.2-7.5-6.1-11.4-2.2zm-15.3 1.2c-3.3 2.8-3.6 6.9-.7 9.8 1.4 1.4 3.7 2.5 5.1 2.5 2.3 0 6.4-2.9 6.6-4.8 0-.4.2-1.5.4-2.4.4-2.4-3.9-6.8-6.8-6.8-1.4 0-3.4.8-4.6 1.7zm29.9.3c-1.4 2.7.4 5.2 3.4 4.8 3.1-.4 3-6.2-.1-6.6-1.4-.2-2.6.4-3.3 1.8zm-3.8 11.6c-4.1 2.8-1.6 9.4 3.5 9.4 4.2 0 6.3-5.6 3.3-8.8-2.5-2.6-3.8-2.7-6.8-.6zm-14.6 1c-3.2 3.2-1 9.4 3.4 9.4 1.1 0 2.8-.9 3.8-2.1 4.5-4.7-2.6-11.9-7.2-7.3zm9.4 9.5c-.9 1.5-.8 2.4.1 3.5 2.7 3.3 7.9-.1 5.8-3.9-1.4-2.3-4.6-2.1-5.9.4z"/></svg>